<svg id="b3ccb787-7909-471c-a8db-568ac4991027" data-name="Layer 1" xmlns="http://www.w3.org/2000/svg" width="865.76" height="682.89" viewBox="0 0 865.76 682.89"><rect x="688.57" y="444.51" width="7.66" height="136.81" fill="#d1d3d4"/><polygon points="714.1 272.82 759.14 272.82 759.14 420.23 703.63 420.23 714.1 272.82" fill="#d1d3d4"/><path d="M755.92,276.78V420.23h13.73l2.47-143.31a8.1,8.1,0,0,0-8.1-8.24h0A8.1,8.1,0,0,0,755.92,276.78Z" fill="#bcbec0"/><path d="M769.65,420.23v24.61a6.86,6.86,0,0,1-6.86,6.86H604.44V420.23Z" fill="#bcbec0"/><polygon points="582.08 582.41 581.71 586.11 637.56 586.11 637.56 582.41 582.08 582.41" fill="#10151a"/><rect x="513.89" y="581.32" width="54.88" height="4.79" fill="#10151a"/><path d="M616.06,554.09l-1.3,11.33s2.61-.66,3.48,6.75c0,0,7.63-4.58,18.74,0l1.52-18.08Z" fill="#f9b499"/><path d="M582.08,582.41h55.55a18.72,18.72,0,0,0-.65-10.24s-10-4.79-18.74,0c0,0,.44-5-3.48-6.75,0,0-.71-2.78-3.57-.9a20.08,20.08,0,0,1-3.07,1.72C601.22,569.2,578.56,579.26,582.08,582.41Z" fill="#01435a"/><polygon points="552.01 555.39 546.79 568.36 549.4 576.2 567.37 574.89 573.91 557.25 552.01 555.39" fill="#f9b499"/><path d="M513.89,581.32h54.9s2-7.84-4.14-10.68c0,0-9.8-2-14.6,1.53,0,0-1.08-8.55-6.1-8.3C544,563.87,511.93,576.31,513.89,581.32Z" fill="#01435a"/><path d="M646.78,336.89V320.55c-10.46-3.7-16-15.47-16-15.47l-7,12.64C618,328,610.18,330.79,610.18,330.79l-9.8-25.49c2.83-2.18,11.76-27,11.76-27,5.23-21.79,26-30.17,26-30.17s29.59-4.53,41.5-4.9c0,0,36.22-2.18,40.79,28.1,0,0,9.37,40.19,12.64,70.25,0,0,.42,6.59-6,8.85H663.77s.44-11.79-1.74-20.61l43.57-4.25s11.11-2,15.68,8.5" fill="#01435a"/><rect x="382.33" y="350.42" width="446.6" height="14.83" fill="#ccc"/><rect x="396.56" y="365.25" width="415.76" height="27.88" fill="#ccc"/><rect x="396.56" y="365.25" width="415.76" height="27.88" opacity="0.2"/><rect x="408.17" y="393.12" width="11.86" height="195.13" fill="#ccc"/><rect x="789.81" y="393.12" width="11.86" height="195.13" fill="#ccc"/><path d="M643.6,244.4h0a15.22,15.22,0,0,0,1.18,5.92c1.73,4.13,5.16,11.31,9,13.81a21,21,0,0,1,9.59-7.82,25,25,0,0,1,2.4-.8c2-.6,9.15-3.77,8.21-18v-7.85l-8.71-9.35Z" fill="#f9b499"/><path d="M641.22,265.44s5-5.76,10.58-3c0,0-6.77-8.31-8.18-17.18a25,25,0,0,0-5.5,2.9S638.45,261,641.22,265.44Z" fill="#10151a"/><path d="M655.11,262.36a20.94,20.94,0,0,1,15.2,4.87s7.51-8.17,9.31-24c0,0-.19-2.13-5.61-6.87,0,0,.47,13.64-5.85,17.93a11.14,11.14,0,0,1-3.23,1.43C663.27,256.18,659.4,257.72,655.11,262.36Z" fill="#10151a"/><path d="M703.36,325.92c-13-20.57-11.16-43.29-11.14-43.52l.62.06c0,.22-1.82,22.74,11,43.13Z" fill="#10151a"/><path d="M672.33,324.41a151,151,0,0,1-17.53-57.15l.63-.05a150.71,150.71,0,0,0,17.43,56.89Z" fill="#10151a"/><circle cx="665.3" cy="296.08" r="1.45" fill="#10151a"/><circle cx="658.16" cy="267.23" r="1.45" fill="#10151a"/><circle cx="660.3" cy="280.98" r="1.45" fill="#10151a"/><polygon points="531.64 350.42 508.95 290.84 595.28 290.84 617.42 350.42 531.64 350.42" fill="#10151a"/><polygon points="663.73 343.64 663.77 350.42 617.42 350.42 614.9 343.64 663.73 343.64" fill="#10151a"/><polygon points="663.73 343.64 663.77 350.42 617.42 350.42 614.9 343.64 663.73 343.64" opacity="0.2"/><path d="M645,393.12s-25.85,1.5-23.67,34.61l-8.2,126.54a1,1,0,0,0,1,1.12H644a1.06,1.06,0,0,0,1-1l6.78-109.25s-2-21.78,20.8-19.17c0,0,47.61,5.72,60.45-32.87Z" fill="#10151a"/><path d="M549.3,558l26.44,1.83a1,1,0,0,0,1-.7l38-124.4s2.39-7.17,6.42-9.47c0,0-2.23-28.6,23.78-32.12H600.38s-11.77,6-13.4,22L548.41,556.74A1,1,0,0,0,549.3,558Z" fill="#10151a"/><path d="M549.3,558l26.44,1.83a1,1,0,0,0,1-.7l38-124.4s2.39-7.17,6.42-9.47c0,0-2.23-28.6,23.78-32.12H600.38s-11.77,6-13.4,22L548.41,556.74A1,1,0,0,0,549.3,558Z" opacity="0.2"/><rect x="215.53" y="99.65" width="278.57" height="488.7" rx="21.56" fill="#10151a"/><rect x="215.53" y="99.65" width="278.57" height="488.7" rx="21.56" opacity="0.2"/><rect x="193.92" y="99.65" width="278.57" height="488.7" rx="21.56" fill="#10151a"/><rect x="211.78" y="153.88" width="240.41" height="387.03" fill="#fff"/><rect x="224.43" y="168.77" width="213.61" height="70.71" fill="#d1d3d4"/><rect x="224.43" y="254.74" width="213.61" height="70.71" fill="#bcbec0"/><rect x="225.18" y="426.68" width="213.61" height="70.71" fill="#bcbec0"/><rect x="327.82" y="340.71" width="213.61" height="70.71" fill="#d1d3d4"/><polygon points="254.21 194.55 254.21 179.59 273.71 179.59 273.71 194.55 289.13 194.55 289.13 214.05 273.71 214.05 273.71 229.01 254.21 229.01 254.21 213.6 239.25 213.6 239.25 195.01 254.21 194.55" fill="#fff"/><rect x="309.99" y="179.59" width="89.78" height="11.34" rx="5.36" fill="#fff"/><rect x="309.99" y="275.72" width="69.38" height="11.34" rx="5.36" fill="#fff"/><rect x="309.99" y="294.76" width="108.82" height="11.34" rx="5.36" fill="#fff"/><rect x="421.83" y="361.42" width="98.55" height="11.34" rx="5.36" fill="#fff"/><rect x="421.83" y="380.77" width="67.11" height="11.34" rx="5.36" fill="#fff"/><rect x="309.99" y="447.75" width="89.33" height="11.34" rx="5.36" fill="#fff"/><rect x="309.99" y="467.1" width="56.68" height="11.34" rx="5.36" fill="#fff"/><rect x="309.93" y="198.63" width="56.28" height="11.34" rx="5.36" fill="#fff"/><rect x="309.93" y="217.68" width="56.28" height="11.34" rx="5.36" fill="#fff"/><path d="M268.27,313.35,287.68,288a13,13,0,0,0,2.7-9.59,14.32,14.32,0,0,0-5.33-9.08s-7.26-6.8-16.78,2.72c0,0-12.7-12.69-21.76,1.36a12,12,0,0,0-1.43,8.21,12.51,12.51,0,0,0,2.57,5.49Z" fill="#fff"/><path d="M376.49,359.76v34.46s2.42,6.95,11.49,6c0,0,6.65.31,7.86-8.16a11.13,11.13,0,0,0,7.47-5.28,13,13,0,0,0,1.12-11.55,9.18,9.18,0,0,0-2.85-4s3.93-7.55-2.42-11.48c0,0-2.11-2.72-8.16-1.82,0,0-1.81-6-8.16-4.83C382.84,353.11,376.49,353.41,376.49,359.76Z" fill="#fff"/><path d="M370.14,359.15v35.37s-3.93,7.12-10.58,5.82c0,0-4.74,0-8.76-8.24,0,0-8.77-2.72-9.07-11.33a10.7,10.7,0,0,1,2.94-8s-3.85-8.76,2.2-13.6a10.41,10.41,0,0,1,9.05-1.21s1.53-5.15,7-5C362.89,353,370.14,353.11,370.14,359.15Z" fill="#fff"/><ellipse cx="270.3" cy="462.99" rx="23.04" ry="24.03" fill="#ccc"/><path d="M260.11,439V487a27.53,27.53,0,0,1-14.44-8.86,23.92,23.92,0,0,1-1.32-28.76C247.28,445.18,252.11,441.07,260.11,439Z" fill="#fff"/><path d="M267.92,487V439a27.55,27.55,0,0,1,14.43,8.85,23.91,23.91,0,0,1,1.33,28.76C280.75,480.8,275.91,484.9,267.92,487Z" fill="#fff"/><rect x="260.11" y="438.96" width="7.81" height="48.06" fill="#ccc"/><rect x="297.23" y="120.75" width="68.99" height="10.75" rx="5.38" fill="#3f3d56"/><circle cx="390.44" cy="126.13" r="8.27" fill="#3f3d56"/><path d="M98.18,201.79c-1.82-3.51,39.71-16.15,40.37,18.49,0,0,77.79-1.91,40.65-45.27-12.86-15-11.54-27.42-11.15-39s-8-45.13-36.81-41.75c0,0-7.54-3.07-17,1.81C92.89,107.19,45,214.56,98.18,201.79Z" fill="#10151a"/><path d="M225.36,240.52s5.07-7.71,9.15-7.86,11.64-2.27,11-.76-5.29,1.66-5.74,2.57,6.95,2.27,9.07,2.42,7.1,0,6.95,1.06-9,5.44-15.23,4.83-13.94,1.82-13.94,1.82Z" fill="#f9b499"/><path d="M152.13,243a75.46,75.46,0,0,0,7.75,11.71c6,7.54,15.29,16.25,26.94,18a28.86,28.86,0,0,0,16-2.59h0c14.14-6.28,24.78-20.72,24.78-20.72A11.6,11.6,0,0,0,226,238s-28.56,6.42-31.28,5.06-18.6-47.08-22.37-52.83-16.66-8.73-16.66-8.73Z" fill="#01435a"/><path d="M45.55,551.38s-8.72,8-7,13.61,9.56,9.42,10.63,16.33S54.48,592,58.31,592H76.55s2.82-4.87-4-6.33-9.37-9.59-8.95-17.12A132.62,132.62,0,0,0,63,551l-14.46-3.35Z" fill="#01435a"/><path d="M119.33,554.76s-3.13,33.7.69,35.58l49-.1s0-5.65-7.87-6.9-21.68-5.87-24-16.12S119.33,554.76,119.33,554.76Z" fill="#01435a"/><path d="M84.43,313c10.08-22.6,16.25-29.09,15.07-36.1-.88-5.22,2.67-97.35,2.67-97.35,1.19-.38,3.59-.71,4.9-1a12.3,12.3,0,0,0,9-7.81,62.59,62.59,0,0,0,3-20.79l1.29.26,21.71,4.3s-.5,6.83-.51,13.26v.16a12.49,12.49,0,0,0,9,12.08l5.13,1.47s8,22.75,9.49,46.13-14.5,33.54.12,80.26C180.26,355.56,78.86,325.47,84.43,313Z" fill="#f9b499"/><path d="M142.1,154.49s-.5,6.83-.51,13.26c-12.15-.34-18.57-11.42-21.2-17.56Z" fill="#f4a790"/><path d="M146.15,160.58s-28.74.48-28.76-17.43-3.74-29.9,14.61-31,21.92,5.77,23.38,11.75S153.63,160,146.15,160.58Z" fill="#f9b499"/><path d="M145.09,111.76s-7.87,21-20,24.1-17.31-.13-17.31-.13A34.16,34.16,0,0,0,119,115.53S139.15,101.76,145.09,111.76Z" fill="#10151a"/><path d="M143.14,113.46s5.83,2.18,8.24,6.44a28.94,28.94,0,0,1,3.88,16.43s5.93-14.27-.73-22.35C147.46,105.42,143.14,113.46,143.14,113.46Z" fill="#10151a"/><path d="M88.34,220.28s.11,13.63.84,26c.49,8.18,1.24,15.8,2.42,18.52,2.94,6.8,6.27,7.9,6.27,7.9L123.58,279l9,2.21,28.52-8.52s13-36.24,7.77-56.65a157.19,157.19,0,0,0-13.18-34.58s-23.27,22.79-53.56-1.93Z" fill="#01435a"/><path d="M159.32,278.19s14.12,43.95,15,58.91-27,212.58-28.11,219.47c-1.06,6.5-9.13,10.65-9.13,10.65a12.26,12.26,0,0,1-9,.69c-7.35-2.08-9.67-4.56-9.67-4.56s-11-140.94-4.19-191.28a797.58,797.58,0,0,0,6.88-93.88Z" fill="#10151a"/><path d="M159.32,278.19s14.12,43.95,15,58.91-27,212.58-28.11,219.47c-1.06,6.5-9.13,10.65-9.13,10.65a12.26,12.26,0,0,1-9,.69c-7.35-2.08-9.67-4.56-9.67-4.56s-11-140.94-4.19-191.28a797.58,797.58,0,0,0,6.88-93.88Z" opacity="0.2"/><path d="M99.5,276.88S78,305.78,76,325.31s-3.15,88.16-7.43,107.21-20,55.69-20,115.09c0,0,1.63,3.41,6.68,5.22a56.66,56.66,0,0,0,5.87,1.63,9.24,9.24,0,0,0,10.33-4.91c10.62-21.39,44.47-90.4,46.21-104.72,1.23-10.14,11.91-77.23,35.23-116.59,5.59-9.45-3.44-47-3.44-47Z" fill="#10151a"/><path d="M161.58,271.4s-5.67,4.49-16.93,4.71c-13.45.27-46.78-3.43-46.78-3.43a27.61,27.61,0,0,0-1.42,8.51s40.71,10.27,64.29,1.5C160.74,282.69,163.78,277,161.58,271.4Z" fill="#10151a"/><path d="M141.74,280.76c0-3.83,2.75-6.95,6.14-6.95s6.13,3.12,6.13,6.95-2.75,6.94-6.13,6.94S141.74,284.59,141.74,280.76Zm2,0c0,2.71,1.84,4.91,4.11,4.91s4.1-2.2,4.1-4.91-1.84-4.92-4.1-4.92S143.77,278.05,143.77,280.76Z" fill="#fff"/><rect x="48.97" y="316.92" width="65.53" height="36.73" transform="translate(90.96 680.27) rotate(-167.83)" fill="#d1d3d4"/><path d="M117.64,324.24s-17.91,15-37.82,9.79-26.24-23.6-26.24-23.6Z" fill="#bcbec0"/><path d="M105.12,321.89a3.56,3.56,0,1,1,3.55,3.56A3.56,3.56,0,0,1,105.12,321.89Zm1.18,0a2.38,2.38,0,1,0,2.37-2.37A2.38,2.38,0,0,0,106.3,321.89Z" fill="#ccc"/><path d="M56.53,326.4s0,5.2-1,7.71-4,5.86-4.94,5.86.91-5.23.41-5.13-2.87,8.71-4.6,8.92S43.1,334.11,44,330.24s4.81-8.51,4.81-8.51Z" fill="#f9b499"/><path d="M102.17,179.53s-15.9,2.15-24.46,19c-6.61,13-11.15,54-15.82,66.92-4.46,12.35-10.62,36.22-14.06,55.35a3.16,3.16,0,0,0,2,3.5l5.85,2.32A2.76,2.76,0,0,0,59,325.47c5.2-8.72,25.68-43.65,32.8-63.86a105.6,105.6,0,0,1,23.87-38.31Z" fill="#01435a"/><path d="M109.85,319.14c0-.59,3.73-59,3-91.89-.37-17.25-3-29.41-5.2-36.57-2.37-7.81-5.91-11-6-11.16l-1.21.36c.09.14,9.9,14.9,10.6,47.41.71,32.78-3,91.14-3,91.73Z" fill="#ccc"/><path d="M635,343.64s3.93-8.06,16.78-8.49H663a69.77,69.77,0,0,1,.71,8.49Z" fill="#f9b499"/><path d="M643.6,242.52a30.38,30.38,0,0,0,.23,3.81s15.57,1.95,17.67-10.44Z" fill="#f7a78d"/><ellipse cx="648.02" cy="220.3" rx="17.28" ry="24.92" fill="#f9b499"/><path d="M674,210.1c-.22-15.9-5.45-19.6-5.45-19.6-8.49-9.59-31.8.21-31.8.21-5.67-.87-1.74-6.1-1.74-6.1s-12.18,4.34-10,13a9.59,9.59,0,0,0,5.53,6.38c2.93,1.25,7.72,2.12,14.68,0,0,0,14.8-3.06,18.29,9.8,0,0,1.75,17.32,10.46,15.85Z" fill="#10151a"/><ellipse cx="665.3" cy="217.29" rx="3.27" ry="4.14" fill="#f9b499"/><path d="M662.07,330.12l-.08-.62c.31,0,30.73-3.74,39.92-3.89v.62C692.77,326.39,662.37,330.08,662.07,330.12Z" fill="#10151a"/><path d="M685.89,576.2h13a12.05,12.05,0,0,1,12.05,12.05v0a0,0,0,0,1,0,0H673.83a0,0,0,0,1,0,0v0A12.05,12.05,0,0,1,685.89,576.2Z" fill="#bcbec0"/></svg>