<svg id="bf221fa4-3a33-4159-99b7-e6974a087c0a" data-name="Layer 1" xmlns="http://www.w3.org/2000/svg" width="865.76" height="682.89" viewBox="0 0 865.76 682.89"><line x1="87.25" y1="641.96" x2="778.51" y2="641.96" fill="none" stroke="#1a202c" stroke-miterlimit="10" stroke-width="3"/><rect x="105.73" y="24.54" width="651.11" height="423.17" rx="28.88" fill="#ccc"/><path d="M612.66,80.75a16.2,16.2,0,0,1-2.37,8.45l-.12.21a12.83,12.83,0,0,1-1.09,1.53,16.33,16.33,0,1,1,0-20.39,12.83,12.83,0,0,1,1.09,1.53c0,.07.09.14.13.22A16.17,16.17,0,0,1,612.66,80.75Z" fill="#fff"/><circle cx="717.86" cy="80.15" r="16.33" fill="#fff"/><circle cx="717.86" cy="80.15" r="14.54" fill="#ccc"/><path d="M638.17,80.75a16.31,16.31,0,0,1-1.82,7.49,16.55,16.55,0,0,1-1,1.72,16.33,16.33,0,0,1-26.25,1,14,14,0,0,0,1.08-1.53,16.27,16.27,0,0,0,0-17.33,14,14,0,0,0-1.08-1.53,16.35,16.35,0,0,1,26.25,1,16.69,16.69,0,0,1,1,1.73A16.25,16.25,0,0,1,638.17,80.75Z" fill="#fff"/><path d="M665.15,80.75A16.33,16.33,0,0,1,635.33,90a16.55,16.55,0,0,0,1-1.72,14.54,14.54,0,1,0,0-15,16.69,16.69,0,0,0-1-1.73,16.34,16.34,0,0,1,29.82,9.22Z" fill="#fff"/><path d="M688.47,80.75a16.33,16.33,0,0,1-28,11.43,16.31,16.31,0,0,0,0-22.87,16.34,16.34,0,0,1,28,11.44Z" fill="#fff"/><path d="M663.35,80.75a14.54,14.54,0,0,1-27,7.49,16.32,16.32,0,0,0,0-15,14.54,14.54,0,0,1,27,7.49Z" fill="#ccc"/><rect x="147.04" y="116.41" width="581.45" height="303.47" fill="#fff"/><rect x="266.21" y="170.21" width="165.08" height="101.93" fill="none" stroke="#000" stroke-miterlimit="10"/><rect x="266.21" y="279.85" width="165.08" height="101.93" fill="none" stroke="#000" stroke-miterlimit="10"/><rect x="437.76" y="170.21" width="165.08" height="101.93" fill="none" stroke="#000" stroke-miterlimit="10"/><rect x="437.76" y="279.85" width="165.08" height="101.93" fill="none" stroke="#000" stroke-miterlimit="10"/><rect x="331.42" y="184.96" width="30.54" height="30.54" fill="#ccc"/><rect x="361.23" y="302.08" width="30.54" height="30.54" fill="#e6e7e8"/><rect x="300.94" y="311.57" width="30.54" height="30.54" fill="#ccc"/><rect x="340.85" y="337.07" width="30.54" height="30.54" fill="#3f3d56"/><rect x="473.84" y="306.53" width="30.54" height="30.54" fill="#e6e7e8"/><rect x="542.73" y="335.17" width="30.54" height="30.54" fill="#3f3d56"/><rect x="519.33" y="298.6" width="28.72" height="28.72" transform="translate(-36.88 73.76) rotate(-7.64)" fill="#ccc"/><rect x="370.2" y="207.96" width="30.54" height="30.54" fill="#e6e7e8"/><rect x="542.73" y="200.23" width="30.54" height="30.54" fill="#e6e7e8"/><rect x="458.57" y="215.78" width="30.54" height="30.54" fill="#ccc"/><rect x="290.04" y="207.97" width="30.54" height="28.42" transform="translate(-35.41 59.43) rotate(-10.51)" fill="#3f3d56"/><rect x="494.29" y="188.94" width="30.54" height="28.42" transform="matrix(0.98, -0.18, 0.18, 0.98, -28.51, 96.38)" fill="#3f3d56"/><polygon points="310.14 241.76 310.14 222.19 324.68 235.03 315.89 234.68 310.14 241.76" fill="#ccc"/><polygon points="377.23 250.63 377.23 231.05 391.78 243.9 382.98 243.54 377.23 250.63" fill="#ccc"/><polygon points="503.7 233.02 503.7 213.44 518.24 226.29 509.44 225.93 503.7 233.02" fill="#ccc"/><polygon points="489.71 346.86 489.71 327.28 504.26 340.13 495.46 339.77 489.71 346.86" fill="#ccc"/><path d="M610.86,80.75a14.52,14.52,0,0,1-1.78,7,15.76,15.76,0,0,1-1.08,1.7,14.54,14.54,0,1,1,0-17.35,15.84,15.84,0,0,1,1.09,1.7A14.53,14.53,0,0,1,610.86,80.75Z" fill="#ccc"/><path d="M636.66,80.75a14.52,14.52,0,0,1-1.78,7,15.84,15.84,0,0,1-1.09,1.7,14.54,14.54,0,0,1-23.5-.22,16.28,16.28,0,0,0,0-16.9,14.53,14.53,0,0,1,26.36,8.45Z" fill="#ccc"/><path d="M672,80.75h2.59a5.14,5.14,0,0,1,5.14,5.14V87a0,0,0,0,1,0,0H666.83a0,0,0,0,1,0,0V85.89A5.14,5.14,0,0,1,672,80.75Z" fill="#ccc"/><circle cx="673.27" cy="76.51" r="3.26" fill="#ccc"/><path d="M716.57,80.77h2.59a5.14,5.14,0,0,1,5.14,5.14V87a0,0,0,0,1,0,0H711.43a0,0,0,0,1,0,0V85.91A5.14,5.14,0,0,1,716.57,80.77Z" fill="#1a202c"/><circle cx="717.86" cy="76.53" r="3.26" fill="#1a202c"/><path d="M647.14,80.39h2.59a5.14,5.14,0,0,1,5.14,5.14v1.11a0,0,0,0,1,0,0H642a0,0,0,0,1,0,0V85.54A5.14,5.14,0,0,1,647.14,80.39Z" fill="#3f3d56"/><circle cx="648.44" cy="76.16" r="3.26" fill="#3f3d56"/><path d="M621.2,80h2.59a5.14,5.14,0,0,1,5.14,5.14V86.3a0,0,0,0,1,0,0H616.05a0,0,0,0,1,0,0V85.18A5.14,5.14,0,0,1,621.2,80Z" fill="#1a202c"/><circle cx="622.49" cy="75.8" r="3.26" fill="#1a202c"/><path d="M595,81.37h2.59a5.14,5.14,0,0,1,5.14,5.14v1.11a0,0,0,0,1,0,0H589.88a0,0,0,0,1,0,0V86.51A5.14,5.14,0,0,1,595,81.37Z" fill="#1a202c"/><circle cx="596.32" cy="77.13" r="3.26" fill="#1a202c"/><circle cx="154.24" cy="47.75" r="7.2" opacity="0.2"/><circle cx="180.35" cy="47.75" r="7.2" opacity="0.2"/><circle cx="207.84" cy="47.75" r="7.2" opacity="0.2"/><rect x="526.82" y="577.5" width="32.01" height="0.6" transform="translate(-161.47 941.76) rotate(-74.12)" fill="#1a202c"/><polyline points="165.12 642.27 174.03 485.76 271.54 485.76 271.54 642.33" fill="#1a202c"/><polyline points="165.12 642.27 174.03 485.76 271.54 485.76 271.54 642.33" opacity="0.2"/><path d="M273.34,416.53s33.29,40.84,50.1,15.45c0,0,10.41-16.52,15.61-48.12.75-4.54,1.62-9.07,2.65-13.56l7.48-32.7-15.78-12s-27.8,65.89-29.17,74.81L292.9,383.12Z" fill="#f9b499"/><path d="M333,326.49l1-4.12a48.12,48.12,0,0,0,1-6.77,81.57,81.57,0,0,1,4.4-20.28l1.82-5.1a2.06,2.06,0,0,1,3.4-.76h0a2.07,2.07,0,0,1,.56,1.86L342,307.12l14.87-25.77a2.9,2.9,0,0,1,4.21-.91h0a2.9,2.9,0,0,1,.8,3.87L356.58,293l8.38,4.22a5.46,5.46,0,0,1,2.63,7.58l-19.44,34.46Z" fill="#f9b499"/><path d="M174,485.76l-5.54-74.64,2.77-2.43-35.77-27.18,23.77-29.12a32.38,32.38,0,0,1,27.61-11.82c26.1,2,74.29,6,84.67,8.43,0,0,11.74,2.42,23.26,34.94l-21.46,37.37-1.8,64.45Z" fill="#01435a"/><path d="M226.37,322.51s-5.66,16.27-19.39,19.66c0,0,12.57,20.27,27.83,19.95,0,0,9,.33,6.79-16.88,0,0-1.27-4,.35-4.77Z" fill="#f9b499"/><path d="M137.1,382.74c-6.5,5.5-25.15,39.54-25.15,39.54S105.52,431,115,441.07l55.6,55.49,5.66-19.41-29.6-43.8,24.56-24.66Z" fill="#f9b499"/><path d="M189.2,464.22l-12.9,12.93-5.66,19.41,2.68,1.6,11.56-8.09a10.16,10.16,0,0,1,4.36-1.73l6.37-.94,2.11.07a5.8,5.8,0,0,0,6-5.41l.88-12.73a5.82,5.82,0,0,0-3.44-5.72l-2.57-1.14A8.41,8.41,0,0,0,189.2,464.22Z" fill="#f9b499"/><path d="M207.6,642.33l-15.9-84.58s-5.3-19.5,15.9-22.68h68.89l22.89,75.47-5.72,31.79Z" fill="#ccc"/><path d="M226.67,642.33,207.6,535.07s-15.42.18-16.53,16.65a25.91,25.91,0,0,0,.46,6.75l16.07,83.86Z" fill="#231f20" opacity="0.2"/><path d="M281.63,531.74s24.61,2,23.58-25.74l19.61,1.14s-1.32,21.94,17.61,21.52l1.61,4.73L329.52,554l-29.07-2.23L279,534.93Z" fill="#f9b499"/><path d="M408.2,501.85s2.88-9.24,3.72-9,21.66,4.51,21.66,4.51v10.26" fill="#01435a"/><path d="M415,493.48s-.37-13.78,3-17.54c0,0,9.81-15.69,11.63-22.13a1.46,1.46,0,0,1,1.4-1.07h0a1.45,1.45,0,0,1,1.43,1.73L430,467.25a1.11,1.11,0,0,0,.54,1.17h0a1.11,1.11,0,0,0,1.37-.21l.27-.3a21.37,21.37,0,0,0,5.65-14.47V449.1a1.48,1.48,0,0,1,.76-1.29h0a1.47,1.47,0,0,1,2.09.75l2,5a40.32,40.32,0,0,1,2.81,14.76h0a15,15,0,0,1-2.47,8.24l-13.16,20" fill="#f9b499"/><path d="M361.37,537.59l27,41.7,18.54-77.73,29.6,6.69c6.24,36.35-12,110.3-17,129.42a6.16,6.16,0,0,1-6,4.6h-8.47a6.18,6.18,0,0,1-4.6-2.06l-44-49.34c-1.95,11.43-6.24,29.93-6.24,29.93-31.5-8.08-62.72-6.52-62.72-6.52l-11.48-19.52,10.46-13.61L257,619.58c33.73-13.66,100.9,2.23,100.9,2.23,3.91,0,11.15,1.68,11.15,1.68v18.78H230.22c-13.94-1.84-7.53-16.83-7.53-16.83S247.78,573,255,551.29c0,0,7.82-21.82,20.28-21.76a10.84,10.84,0,0,1,8,3.73c4.77,5.35,20.59,20.78,40.82,16.56.47-.1.94-.19,1.41-.25,2.2-.33,10.77-2.56,14.86-18a5.15,5.15,0,0,1,5.15-3.81C349.74,527.94,356.23,529.67,361.37,537.59Z" fill="#01435a"/><polyline points="244.35 623.51 260.37 607.16 257.1 619.91" opacity="0.2"/><polygon points="276.05 594.76 287.53 614.28 297.05 614.07 286.51 581.15 276.05 594.76" opacity="0.2"/><polygon points="374.98 611.63 356.49 590.87 363.97 582.91 374.98 611.63" opacity="0.2"/><polygon points="354.94 599.14 350 596.81 356.44 590.97 354.94 599.14" opacity="0.2"/><polygon points="386.83 628.29 413.19 562.4 534.2 562.4 501.39 642.27 380.84 642.27 386.83 628.29" fill="#1a202c"/><polygon points="415.68 565.27 385.82 639.4 500.36 639.01 530.73 564.88 415.68 565.27" fill="#ccc"/><path d="M369.28,625.76a57.73,57.73,0,0,1,42,13.8,1.75,1.75,0,0,1-.09,2.71h0l-5.85-1.9,1.89,6.26a9.09,9.09,0,0,1-8.71,11.72h0a9.12,9.12,0,0,1-7.73-4.3c-.25-.41-.54-.85-.86-1.32a28.4,28.4,0,0,0-20.87-12.35Z" fill="#f9b499"/><circle cx="458.28" cy="602.14" r="9.04" fill="#1a202c"/><path d="M512.71,593.19H557.5a0,0,0,0,1,0,0v30.67a18.41,18.41,0,0,1-18.41,18.41h-8a18.41,18.41,0,0,1-18.41-18.41V593.19A0,0,0,0,1,512.71,593.19Z" fill="#808285"/><g opacity="0.2"><rect x="512.71" y="599.84" width="44.79" height="0.6"/></g><path d="M549.75,546.36l40.83,21.13s-5.53,10.09-20.42,11.53a17.44,17.44,0,0,0-1.93-5.62,1.65,1.65,0,0,0-3,.7,7.64,7.64,0,0,0,.39,3.7s-5.92.08-8.11-2.76c0,0,3.68-5.66,2-11.4a2.84,2.84,0,0,0-5-.92c-1.1,1.53-1.8,4.5-1,10.14C553.51,572.86,541.62,568,549.75,546.36Z" fill="#1a202c"/><rect x="523.48" y="548.06" width="0.6" height="45.91" transform="matrix(0.97, -0.26, 0.26, 0.97, -129.54, 154.39)" fill="#1a202c"/><path d="M465.56,553.72,515,536.05s7,12,.52,23.11a17.86,17.86,0,0,1-15,7.5s-5.58-10.17-8.59-10.06c0,0-2.1,2.77,2.83,11.3,0,0-13-.41-18.39-6.17,0,0,3.89-1.14,2.74-4.17a1.47,1.47,0,0,0-1.23-1c-1.15-.11-3.27.24-5.1,3.59C472.75,560.19,469.46,559,465.56,553.72Z" fill="#1a202c"/><path d="M513.32,555.53c-.26-2.48-1.11-7.32-3.88-8.8a2.69,2.69,0,0,0-4,2.08c-.11,1.69,1.13,4.22,6.69,7.47A.78.78,0,0,0,513.32,555.53Z" opacity="0.2"/><path d="M535.41,593.2l-.6,0c0-.85,3.25-85.49,20.13-112.19l.51.32C538.66,507.88,535.44,592.35,535.41,593.2Z" fill="#1a202c"/><line x1="561.37" y1="523.44" x2="540.32" y2="535.24" fill="none" stroke="#000" stroke-miterlimit="10"/><line x1="532.92" y1="510.15" x2="541.35" y2="528.49" fill="none" stroke="#000" stroke-miterlimit="10"/><path d="M517.86,519.32s-4.57,25.77,20.59,30.66c0,0,20.48,4.14,28.53-17,0,0,2.06-13.1-1.12-18.9,0,0-15.26,6.67-19,5.24,0,0-2.67-4.06,2.51-6.77a11,11,0,0,1,6.2-1.1c2.73.28,6.61.94,8.37,2.26,0,0,0-9.71-2.62-12.67,0,0-7.47,2.19-7.73-1.93,0,0-.64-4,6.82-6.43,0,0-3.33-11.58-5.27-12.61,0,0-15.06,8-21.11,15.44,0,0,3.94,7.6,2.16,10.35a1.4,1.4,0,0,1-2.06.27c-1.11-.93-2.85-3.21-2.93-8.43,0,0-10.17,10.91-10.94,17.49,0,0,10,6.68,9.55,12.4a1.57,1.57,0,0,1-1.22,1.44C527.05,529.35,523.61,528.43,517.86,519.32Z" fill="#1a202c"/><path d="M548.84,541.72c.37-2.5,2.09-7.47,9.95-7.62a1.06,1.06,0,0,1,1,1.35c-.61,2.1-2.69,6-9.73,7.45A1.06,1.06,0,0,1,548.84,541.72Z" opacity="0.2"/><path d="M242,339.86a4,4,0,0,0-.75,3.55s-8.54-3.41-11.61-11.12A48.6,48.6,0,0,0,242,339.86Z" fill="#f7a48b"/><ellipse cx="242.51" cy="321.08" rx="16.89" ry="22.15" transform="translate(-116.93 140.23) rotate(-26.23)" fill="#f9b499"/><ellipse cx="222.61" cy="313.95" rx="6.26" ry="7.95" transform="translate(-115.83 130.7) rotate(-26.23)" fill="#f9b499"/><path d="M222.05,306.34c6.31,1.19,7.17,8.61,7.17,8.61,9.77,3.94,13.29-8.92,13.29-8.92,7.78,11.15,15.56,1,15.56,1,15.61,1.88,10.12-14.93,10.12-14.93-3.6-9.44-16.3-5.67-16.3-5.67-1-2.4-7.55-4.46-7.55-4.46-16.3-4.8-14.07,7.55-14.07,7.55-.17,2.58-1.55,1.38-1.55,1.38-4.11-1.89-6.11,3-6.11,3s-12.36,4.08-5.22,14.24C217.39,308.18,219.5,305.55,222.05,306.34Z" fill="#1a202c"/><path d="M262.38,307.06a11.3,11.3,0,0,1-3.79,8.64,66.12,66.12,0,0,0-3.32-6.08l2.8-2.56A21.87,21.87,0,0,0,262.38,307.06Z" fill="#1a202c"/><path d="M325.63,515.11s-.61-3.53-.83-6.64c0,0-12.56,2.27-19.24,0C305.56,508.47,311.72,516.22,325.63,515.11Z" fill="#f7a48b"/><path d="M312,457.29s5.57,3.19,7.07,6.78c0,0-5.07-1.51-6.15-1.7A9.41,9.41,0,0,0,312,457.29Z" fill="#1a202c"/><circle cx="279.04" cy="469.78" r="5.7" fill="#01435a"/><path d="M276.71,464.58c-4.91-10.29-21.65-7.29-21.65-7.29s-21.62,3.34-22.9,32.94c0,0-1.29,34.75-9.53,37.07,0,0,6.66,9.31,16.05,2.83a5.35,5.35,0,0,1,4.69-.69,8.32,8.32,0,0,0,5.84-.05,6.94,6.94,0,0,1,5.44,0,4.9,4.9,0,0,0,5-.28s-10.52-45.93,3.46-54.52a8.4,8.4,0,0,1,1.28-.62c1.85-.77,6.7-2.59,9.39-1.87" fill="#1a202c"/><ellipse cx="311.01" cy="485.76" rx="23.12" ry="29.76" transform="translate(-252.45 609.05) rotate(-69.71)" fill="#f9b499"/><ellipse cx="299.38" cy="501.56" rx="7.54" ry="12.13" transform="translate(-231.59 745) rotate(-83.8)" fill="#f9b499"/><path d="M287.36,501.56S270.76,491.69,279,474c0,0,3.6-7.55,15.27-11.33,0,0,9.44-4.12,13.39-9.95,0,0,15.1,6.35-6,31.92,0,0,8.26,8.23,9.36,12l-1.51,1.42s-8-8.25-20.54-1.06C288,498.23,286.55,499.46,287.36,501.56Z" fill="#1a202c"/></svg>