<svg id="f59ffd12-96fe-47eb-8bc8-7bad4482064b" data-name="Layer 1" xmlns="http://www.w3.org/2000/svg" width="865.76" height="682.89" viewBox="0 0 865.76 682.89"><path d="M493.86,642.29a23,23,0,0,1-.46,2.93,18.71,18.71,0,0,1-2.45,5.87c-1.95,3.16-6.91,8.38,8.4,10.56a25.46,25.46,0,0,0,9.32.76,6,6,0,0,0,5-7.51c-1.22-4.63-2.69-11.48-1.59-14Z" fill="#10151e"/><path d="M554.82,637.62v5.59s-5.37,12.65,0,14.62h.07c.69,0,12,.49,20.43-2.43a3.54,3.54,0,0,0,2-4.9c-.56-1.15-1.22-2.48-1.89-3.74a21.86,21.86,0,0,1-2.5-10.11h0Z" fill="#10151e"/><path d="M478,434.62s13,49.65,8.67,71.6c0,0-7.51,125-5.2,138.65,0,0,37.55.89,47.95-4.89,0,0-5.49-97.93-11-122.78,0,0-14.74-67.87-.29-69.76,0,0,11.84-2.17,15.6,25.56v42.18s1.15,99.09,4.91,124.51c0,0,37,1.45,53.73-5.49,0,0-20.72-112.25-26.32-127.83-.51-1.42-1-2.84-1.37-4.29-2.17-8-7.84-29.93-7.46-39a43.45,43.45,0,0,0-.32-7l-4.17-34.23S537.18,433.61,478,434.62Z" fill="#3f3d56"/><path d="M478,434.62s13,49.65,8.67,71.6c0,0-7.51,125-5.2,138.65,0,0,37.55.89,47.95-4.89,0,0-5.49-97.93-11-122.78,0,0-14.74-67.87-.29-69.76,0,0,11.84-2.17,15.6,25.56v42.18s1.15,99.09,4.91,124.51c0,0,37,1.45,53.73-5.49,0,0-20.72-112.25-26.32-127.83-.51-1.42-1-2.84-1.37-4.29-2.17-8-7.84-29.93-7.46-39a43.45,43.45,0,0,0-.32-7l-4.17-34.23S537.18,433.61,478,434.62Z" fill="#10151e"/><path d="M506.2,450s-5,6.49-.62,9.3a5.26,5.26,0,0,0,3.95.67,10.79,10.79,0,0,0,5.87-3.76s1.87,7.37,5.89,6.94c0,0,2.3.19,5.75-5.06a11.79,11.79,0,0,0,2.26,3.8,6.89,6.89,0,0,0,11.72-2.5c0-.14.08-.28.11-.43a8.1,8.1,0,0,0,3.75,4.7,6.36,6.36,0,0,0,8-1.78,6.47,6.47,0,0,0,1.3-3.93,7.45,7.45,0,0,0,1.77,1.65,8.67,8.67,0,0,0,12.86-4c.19-.46.39-1,.6-1.52a8.54,8.54,0,0,0,9.77,2s5.46-2,.86-12.14C580.06,443.89,540.69,464.35,506.2,450Z" fill="#10151e"/><path d="M506.2,450s-5,6.49-.62,9.3a5.26,5.26,0,0,0,3.95.67,10.79,10.79,0,0,0,5.87-3.76s1.87,7.37,5.89,6.94c0,0,2.3.19,5.75-5.06a11.79,11.79,0,0,0,2.26,3.8,6.89,6.89,0,0,0,11.72-2.5c0-.14.08-.28.11-.43a8.1,8.1,0,0,0,3.75,4.7,6.36,6.36,0,0,0,8-1.78,6.47,6.47,0,0,0,1.3-3.93,7.45,7.45,0,0,0,1.77,1.65,8.67,8.67,0,0,0,12.86-4c.19-.46.39-1,.6-1.52a8.54,8.54,0,0,0,9.77,2s5.46-2,.86-12.14C580.06,443.89,540.69,464.35,506.2,450Z" fill="#231f20" opacity="0.2"/><path d="M285.22,377.24l-1.1-.27c.11-.28,10.15-28.44,14.53-36.42l.88.49C295.19,349,285.32,377,285.22,377.24Z" fill="#ccc"/><polygon points="273.44 374.49 244.55 468.67 305.5 476.76 333.24 386.62 273.44 374.49" fill="#ccc"/><polygon points="255.35 484.87 244.55 468.67 305.5 476.76 333.24 386.62 345.87 392.54 313.25 490.33 255.35 484.87" fill="#ccc"/><polygon points="255.35 484.87 244.55 468.67 305.5 476.76 333.24 386.62 345.87 392.54 313.25 490.33 255.35 484.87" fill="#10151e" opacity="0.2"/><polygon points="396.79 368.42 432.9 360.33 443.59 413.49 407.48 424.76 396.79 368.42" fill="#10151e"/><polygon points="408.35 438.62 439.55 429.67 443.59 413.49 407.48 424.76 408.35 438.62" fill="#10151e"/><polygon points="408.35 438.62 439.55 429.67 443.59 413.49 407.48 424.76 408.35 438.62" fill="#231f20" opacity="0.2"/><path d="M340.38,654.46l4.93,4.77a3.81,3.81,0,0,0,2.89,1l12.08-.8L341.9,641.75l-4,2.76,1.16,7.36A4.61,4.61,0,0,0,340.38,654.46Z" fill="#01425a"/><path d="M340.38,654.46l4.93,4.77a3.81,3.81,0,0,0,2.89,1l12.08-.8L341.9,641.75l-4,2.76,1.16,7.36A4.61,4.61,0,0,0,340.38,654.46Z" fill="#fff" opacity="0.2"/><path d="M391.94,659.19s-12.27,2.67-10.14-11l2.14-15.65s7.47-3.91,18.31-1.42c0,0,2.14,11.73,4.45,15.47,0,0,7.55,14-7.11,12.83Z" fill="#01425a"/><path d="M391.94,659.19s-12.27,2.67-10.14-11l2.14-15.65s7.47-3.91,18.31-1.42c0,0,2.14,11.73,4.45,15.47,0,0,7.55,14-7.11,12.83Z" fill="#fff" opacity="0.2"/><path d="M327.17,460.87s-22.44-.73-27.83-10.48c0,0,3.69-6.34,17.4-2.1a46.45,46.45,0,0,1,10.43,3.87Z" fill="#01425a"/><path d="M327.17,460.87s-22.44-.73-27.83-10.48c0,0,3.69-6.34,17.4-2.1a46.45,46.45,0,0,1,10.43,3.87Z" fill="#10151e" opacity="0.2"/><path d="M383.14,460.87s19.72-1.45,30.34-13.36c0,0-.38-8.51-28.79,5.06Z" fill="#01425a"/><path d="M383.14,460.87s19.72-1.45,30.34-13.36c0,0-.38-8.51-28.79,5.06Z" fill="#10151e" opacity="0.2"/><path d="M328.9,595.49s-9.24-43.33-6.06-80.6c0,0,8.2-46.52-.67-64.86l25.51,4.13s5,7.88-.54,55.32a242.81,242.81,0,0,0-1.63,28.14c0,16,.51,42.76,3,56.14Z" fill="#3f3d56"/><path d="M328.9,595.49s-9.24-43.33-6.06-80.6c0,0,8.2-46.52-.67-64.86l25.51,4.13s5,7.88-.54,55.32a242.81,242.81,0,0,0-1.63,28.14c0,16,.51,42.76,3,56.14Z" fill="#10151e"/><path d="M360.68,454.16s4.91,9.89,5.2,26.93c0,0,1.44,38.13,6.07,55.76l11.19,58.64,13.94-1.44-2.31-74.54s-.78-22.25-3.8-31c-.45-1.32-.87-2.65-1.21-4-1.84-7.54-6.58-29.12-2.79-37.06Z" fill="#3f3d56"/><path d="M360.68,454.16s4.91,9.89,5.2,26.93c0,0,1.44,38.13,6.07,55.76l11.19,58.64,13.94-1.44-2.31-74.54s-.78-22.25-3.8-31c-.45-1.32-.87-2.65-1.21-4-1.84-7.54-6.58-29.12-2.79-37.06Z" fill="#10151e"/><rect x="284.56" y="18.07" width="269.75" height="211.25" fill="#10151e"/><rect x="284.56" y="18.07" width="269.75" height="211.25" fill="#ccc"/><rect x="294.08" y="29.33" width="251.59" height="190.24" fill="#fff"/><path d="M413.48,439.92s-9.32-70.42-23.62-100.53c0,0,9.87,2.68,16.45.09a8.94,8.94,0,0,0,5.5-7c.62-4.13,1.09-13.54-3.61-27.76-.25-.76-.49-1.52-.71-2.28-2-7.05-14.58-48.49-31.5-49.55,0,0-38.57.29-38.7-.75,0,0-9.12-3.24-17.65,13.82L297,317.12s-11.47,24.72,5.3,26.48c0,0,7.06,2.65,19.41-2.06,0,0-31.18,71.78-22.35,108.85,0,0,3.18-6.21,18.89-1.69a49.52,49.52,0,0,1,7,2.61c4.63,2.13,17.61,7.06,35.62,5.51,0,0,16.43-.39,28.1-6,2-.95,4-1.86,6.06-2.62,6.28-2.31,17.41-5.64,18.5-.69C413.48,447.51,414.34,445.56,413.48,439.92ZM328.76,318.8l-9.32,3.25,9.32-16.9S330.06,314.47,328.76,318.8ZM385,319l-3.4-21.17L392,317.07c1.3,1.45,1.54,4.06,1.55,5.63a1.77,1.77,0,0,1-1.44,1.78,5.28,5.28,0,0,1-1.86,0A6.58,6.58,0,0,1,385,319Z" fill="#01425a"/><path d="M382.64,295.91c-3.41,4.94-10.48,3.46-13.68,2.46a13.81,13.81,0,0,1-2.37-1,5.79,5.79,0,0,0-3.65-.62,6.07,6.07,0,0,0-4.48,3.53c-3.59,8-8,7.5-8,7.5-4.18.17-8-8-8-8-2-4.39-7-2.32-9.33-1a7.45,7.45,0,0,1-4.25,1c-3.63-.32-5.21-2.88-5.89-5.35a12.31,12.31,0,0,1,.19-7c1.43-4.57,5.16-15.45,10.25-23.22a23.62,23.62,0,0,0,3.9-12,15.84,15.84,0,0,0-.29-4s-2.6-23,1.3-31.42c0,0,2.38-19.28,25.13-15.81,0,0,10.51.79,14.74,12.75a26,26,0,0,1,1.39,9.94c-.31,6.84-1.26,24-3.41,35.11a5.6,5.6,0,0,0,.41,3.4C379.18,267.8,387.34,286.81,382.64,295.91Z" fill="#10151e"/><path d="M413.14,364.8c-.1-.31-10.22-30.61-20.68-40.16l1-1.12c10.76,9.81,20.68,39.54,21.1,40.8Z" fill="#10151e"/><path d="M361.72,660.35a10.65,10.65,0,0,0,7.65-4.59.58.58,0,0,0-.15-.77l-8.34-6a20.65,20.65,0,0,1-6.63-8c0-.07-.07-.14-.1-.2a43,43,0,0,1-3.71-21c.85-12.2,1-28.63,1-28.63-7.8-1.74-25.72,1.15-25.72,1.15s10.4,25.43,5.2,50.27c0,0,17.11.54,26.9,16A3.94,3.94,0,0,0,361.72,660.35Z" fill="#01425a"/><path d="M341,644.89c-2.37,4.62.93,19.94.93,19.94h-4s-3.76-16.47-6.94-22.25A27,27,0,0,1,341,644.89Z" fill="#10151e"/><path d="M377.36,593.4s17.43-4.8,26.85-1.43c0,0-2.84,22.06-2,39.13,0,0-10.13-2.31-18.31,1.42C383.94,632.52,386.25,610.82,377.36,593.4Z" fill="#01425a"/><path d="M393,663.46h4.62s0-23.12,4.9-30.94l-.28-1.42a29,29,0,0,0-18.31,1.42S389.27,638.92,393,663.46Z" fill="#10151e"/><path d="M480.69,313.6s5.4,31.41,0,60.89l-8.34,59.92s66.76,4.31,91.8-20.92c0,0-31.42-70.37-29.46-105.73,0,0,22.09,33.86,34.37,28.46,0,0,18.65-15.71,35.34-46.14l-15.22-11.79s-17,27.45-23.42,33.95a1.32,1.32,0,0,1-2-.12,484,484,0,0,1-29.1-42.47,12.32,12.32,0,0,0-8.73-5.79l-6.07-.88s3.47-12.14,6.93-16.76l-54.44,4s6.78,4.63,12,15c0,0-16.18,3.46-16.18,17l-10.78,35.18a.26.26,0,0,1-.48,0l-18.21-39.25-16.18,8.95S445,341,457.17,346.18C457.17,346.18,469,352.1,480.69,313.6Z" fill="#01425a"/><path d="M525.93,384.6s-4.16-95.12,3.26-119.78l-3.26-1s-7.15,41.21-3.21,113.74a25.5,25.5,0,0,1-1.62,10.45C517,398.86,507.56,425.8,506,450.47c0,0,29.47,15,74.25-6.07,0,0-8.92-40.42-23.52-61.21a13.36,13.36,0,0,1-2.42-6.83c-.62-10.64-2.41-40.11-3.82-51.85l-3.09-.37,5.69,57.57S542.11,387.49,525.93,384.6Z" fill="#10151e"/><path d="M556.8,414.1a5.94,5.94,0,0,1-1.12-1,9.57,9.57,0,0,1-9.88,5.9,7.49,7.49,0,0,1-5.86-3.93,7.8,7.8,0,0,1-7.51,4.85c-5.06.09-6.65-5.14-6.65-5.14-4.19,4-7.08,3.32-7.08,3.32-6.35-.72-5-8-5-8s25.33,9.58,54.82-3.86a10.45,10.45,0,0,1,.11,1C569,413.62,562,417.76,556.8,414.1Z" fill="#231f20" opacity="0.2"/><polygon points="499.28 664.83 504.26 664.7 505.58 644.37 501.26 644.6 499.28 664.83" fill="#10151e"/><polygon points="499.28 664.83 504.26 664.7 505.58 644.37 501.26 644.6 499.28 664.83" fill="#231f20" opacity="0.3"/><polygon points="566.76 660.35 563.29 660.35 561.54 639.43 565.03 639.22 566.76 660.35" fill="#10151e"/><polygon points="566.76 660.35 563.29 660.35 561.54 639.43 565.03 639.22 566.76 660.35" fill="#231f20" opacity="0.3"/><path d="M424.66,286.05s-5.89-7.91-6.23-14.34a3.94,3.94,0,0,1,2.43-3.83l4.56-1.88a3.32,3.32,0,0,0,2-3.59L425.6,250.2a1.43,1.43,0,0,1,1.17-1.62h0a1.4,1.4,0,0,1,1.54.81c2,4.27,9.47,21.23,8.68,29.83Z" fill="#f9b499"/><path d="M591.26,279.9a17,17,0,0,0,1.5-7.85s-5.67-12.27,5-13.33c0,0-2.4,7.68.23,10.59h15.79l1.23-7.95a7.71,7.71,0,0,1,5.08,7.95s1.6,12.39-14.55,15L603,289Z" fill="#f9b499"/><path d="M598.37,254l-1.73,9.87s-.37,3.41,1.38,5.45h15.79L616.09,257l2.7-13.68a.49.49,0,0,0-.42-.59l-18.26-2.32a.48.48,0,0,0-.55.44Z" fill="#10151e"/><path d="M595.22,245.19v7.4a1.22,1.22,0,0,0,1,1.2l22.68,3.35a1.22,1.22,0,0,0,1.38-1.06l.9-7.74a1.2,1.2,0,0,0-1.05-1.34l-23.58-3A1.21,1.21,0,0,0,595.22,245.19Z" fill="#10151e"/><path d="M595.22,245.19v7.4a1.22,1.22,0,0,0,1,1.2l22.68,3.35a1.22,1.22,0,0,0,1.38-1.06l.9-7.74a1.2,1.2,0,0,0-1.05-1.34l-23.58-3A1.21,1.21,0,0,0,595.22,245.19Z" fill="#231f20" opacity="0.2"/><rect x="311.07" y="148.56" width="68.72" height="9.98" fill="#ccc"/><rect x="429.15" y="95.39" width="68.72" height="9.98" fill="#ccc"/><path d="M322.52,145.23h22.91l6.27-4.85a39.81,39.81,0,0,1,11.37-6.16l7.67-2.66s0-7.55-.53-14.29c-.35-4.46-.5-8.94-.41-13.41v-.38H351s-3.08,13.85-10.3,23.28a19.47,19.47,0,0,1-8.11,6.12C328.26,134.64,321.36,138.55,322.52,145.23Z" fill="#01425a"/><rect x="322.52" y="145.23" width="22.91" height="3.33" fill="#10151e"/><path d="M357.55,136.62v11.94h9.12l4.07-17a84.35,84.35,0,0,0-8.54,3Q359.74,135.55,357.55,136.62Z" fill="#10151e"/><path d="M362.54,130.89l.51-.5a1.22,1.22,0,0,0-.09-1.79c-2.86-2.34-10.74-9.1-12.18-13.29l19.25-.52v-3.35H348.58l-1.65,4.22a42.37,42.37,0,0,0,14.13,15.41A1.18,1.18,0,0,0,362.54,130.89Z" fill="#10151e"/><path d="M366.86,117.3H356.31v-8.81h10.55Zm-9.54-1h8.52V109.5h-8.52Z" fill="#10151e"/><path d="M454.86,81.41A28.25,28.25,0,0,1,445,90.22s-9.54,4.56-2.89,5.17H470s.82-5.32-15.12-5.32C454.91,90.07,458.62,87.18,454.86,81.41Z" fill="#10151e"/><path d="M463.51,63.35s-2.92,21.41-8.6,26.72c0,0,14.68-.2,15.12,5.32A27.75,27.75,0,0,1,477,78.23s-3.61-6.5,1.73-13.87C478.69,64.36,468.41,64.51,463.51,63.35Z" fill="#10151e"/><path d="M459.48,58s-1.59,18.34-4.62,23.4c0,0,1.54,4.75.54,8.16,0,0,5.45-4.91,8.11-26.22a57,57,0,0,0,15.18,1l6.07-5.78A52.64,52.64,0,0,1,459.48,58Z" fill="#10151e"/><path d="M459.48,58s-1.59,18.34-4.62,23.4c0,0,1.54,4.75.54,8.16,0,0,5.45-4.91,8.11-26.22a57,57,0,0,0,15.18,1l6.07-5.78A52.64,52.64,0,0,1,459.48,58Z" opacity="0.2"/><path d="M477,78.23s3.61-5.78,4.62,0l1,17.16H484s2.74-28.43.72-36.81C484.76,58.58,471.47,66.82,477,78.23Z" fill="#10151e"/><circle cx="464.4" cy="67.71" r="0.89" fill="#01425a"/><circle cx="462.63" cy="73.79" r="0.89" fill="#01425a"/><circle cx="461.74" cy="79.37" r="0.89" fill="#01425a"/><polygon points="461.45 79.28 455.78 79.37 455.99 78.77 460.25 78.77 457.06 75.09 461.74 73.76 457.9 70.31 462.92 67.7 458.61 65.69 458.68 65.17 464.11 67.71 458.87 70.42 462.88 74.02 457.95 75.28 461.45 79.28" fill="#01425a"/><path d="M464.39,176.51s.12-5.1,6-7.41a12,12,0,0,0,6.61-6.56,46.35,46.35,0,0,0,2.74-10.15s4.92.29,7.8,2.31c0,0,9.18-14.09,20.44-17.34l1.52,5.64s-11.27,4.48-17.33,13.94l1.82,2.23s-4.93,8.61-6,12.15a5,5,0,0,1-.72,1.51c-1,1.38-3.4,3.78-8.25,3.68Z" fill="#10151e"/><path d="M500.07,155.36l-1.59,22.25h7.66l3.32-27.3-.69.07A22.73,22.73,0,0,0,490.87,164l-3.64,8.48s-1.89,3.68-8.25,3.68H464.39v1.45h17A8.56,8.56,0,0,0,489,173l.06-.13S494.44,157.1,500.07,155.36Z" fill="#01425a"/><rect x="450.09" y="177.61" width="69.33" height="9.97" fill="#ccc"/><path d="M488.23,200.52s-16,5.62-10.4,31.4c0,0,5,14.61,10.4,17.16l5.2-.52s1.83,31.89-8.4,54.64c0,0-4.13,7.8,8.52,9.1,0,0,27.83.44,27.61-14.51,0,0-3.68-31.52-11-49.23,0,0,8.45-9.27,4.33-27.69C514.44,220.87,511.19,191.65,488.23,200.52Z" fill="#10151e"/><path d="M303.69,381l-1.82,3.82c3.89-19.27,18.59-62.81,18.65-63.09l1.11-.39C321.57,321.57,308.53,362.15,303.69,381Z" fill="#ccc"/><polygon points="413.11 437.26 413.08 437.05 443.59 413.49 443.51 413.81 413.11 437.26" fill="#fff"/><polygon points="439.55 429.67 411.07 423.86 411.04 423.65 439.61 429.43 439.55 429.67" fill="#fff"/></svg>